<svg width="18" height="20" viewBox="0 0 18 20" fill="none" xmlns="http://www.w3.org/2000/svg">
<path d="M15 13.9205C14.24 13.9205 13.56 14.2171 13.04 14.6818L5.91 10.5788C5.96 10.3514 6 10.124 6 9.88671C6 9.64943 5.96 9.42204 5.91 9.19464L12.96 5.13121C13.5 5.62554 14.21 5.93203 15 5.93203C16.66 5.93203 18 4.60721 18 2.96601C18 1.32482 16.66 0 15 0C13.34 0 12 1.32482 12 2.96601C12 3.2033 12.04 3.43069 12.09 3.65808L5.04 7.72152C4.5 7.22719 3.79 6.9207 3 6.9207C1.34 6.9207 0 8.24552 0 9.88671C0 11.5279 1.34 12.8527 3 12.8527C3.79 12.8527 4.5 12.5462 5.04 12.0519L12.16 16.1648C12.11 16.3724 12.08 16.5899 12.08 16.8074C12.08 18.3992 13.39 19.6943 15 19.6943C16.61 19.6943 17.92 18.3992 17.92 16.8074C17.92 15.2157 16.61 13.9205 15 13.9205Z" fill="#141414"/>
</svg>
